<svg xmlns="http://www.w3.org/2000/svg" version="1.1" x="0" y="0" viewBox="0 0 483.5 483.5" xml:space="preserve"><path d="M480 425L269.1 29.9c-5.3-9.9-15.6-16.1-26.8-16.1h0c-11.2 0-21.5 6.2-26.8 16.1L3.6 425c-5 9.5-4.8 20.9 0.7 30 5.5 9.2 15.4 14.8 26.1 14.8H453.1c10.7 0 20.6-5.6 26.1-14.8C484.7 445.8 485 434.5 480 425zM242.2 409c-16.8 0-30.4-13.6-30.4-30.4 0-16.8 13.6-30.4 30.4-30.4 16.8 0 30.4 13.6 30.4 30.4C272.6 395.3 259 409 242.2 409zM272.7 287.9c0 16.8-13.6 30.4-30.4 30.4 -16.8 0-30.4-13.6-30.4-30.4V166.3c0-16.8 13.6-30.4 30.4-30.4 16.8 0 30.4 13.6 30.4 30.4V287.9z" fill="#ff5722"/></svg>