<svg xmlns="http://www.w3.org/2000/svg" version="1.1" x="0" y="0" width="95.7" height="95.7" viewBox="0 0 95.7 95.7" xml:space="preserve"><path fill="#fff" d="M39.2 72.3l39.4-22.8c0.6-0.4 1-1 1-1.7s-0.4-1.4-1-1.7L39.2 23.3c-0.6-0.4-1.4-0.4-2 0 -0.6 0.4-1 1-1 1.7v10.6H2.1c-1.1 0-2 0.9-2 2v20.3c0 1.1 0.9 2 2 2h34.1v10.6c0 0.7 0.4 1.4 1 1.7 0.3 0.2 0.7 0.3 1 0.3C38.5 72.6 38.9 72.5 39.2 72.3zM80.8 0H40c-1.1 0-2 0.9-2 2v6c0 1.1 0.9 2 2 2h40.7c2.6 0 4.8 2.1 4.8 4.8v66.1c0 2.6-2.1 4.8-4.8 4.8H40c-1.1 0-2 0.9-2 2v6c0 1.1 0.9 2 2 2h40.7c8.1 0 14.8-6.6 14.8-14.8V14.8C95.5 6.6 88.9 0 80.8 0z"/></svg>