<svg xmlns="http://www.w3.org/2000/svg" version="1.1" x="0" y="0" viewBox="0 0 612 612" xml:space="preserve"><path fill="#fff" d="M306 326c90.6 0 123.1-90.7 131.7-165.2C448.2 69.1 404.8 0 306 0c-98.8 0-142.2 69.1-131.7 160.8C182.9 235.3 215.4 326 306 326zM551 541.9c-1-28.9-4.4-57.9-9.4-86.4 -6.1-34.5-13.9-85-44-107.5 -17.4-13-39.9-17.2-59.9-25.1 -9.7-3.8-18.4-7.6-26.5-11.9 -27.5 30.2-63.4 46-105.2 46 -41.8 0-77.7-15.8-105.2-46 -8.2 4.3-16.8 8.1-26.5 11.9 -19.9 7.8-42.5 12.1-59.9 25.1 -30.1 22.5-37.9 73-44 107.5 -5 28.5-8.4 57.5-9.4 86.4 -0.8 22.4 10.3 25.5 29 32.3 23.5 8.5 47.7 14.7 72 19.9 47.1 9.9 95.6 17.6 143.9 17.9 48.3-0.3 96.8-8 143.9-17.9 24.4-5.1 48.6-11.4 72-19.9C540.7 567.4 551.7 564.3 551 541.9z"/></svg>